# xmcd
#
# Track frame offsets:
#  151
#  10108
#  21834
#  32738
#  45219
#  56118
#  69393
#  81110
#  93047
#  104887
#  117541
#  128911
#  140030
#  150950
#  163255
#  174897
#  186858
#  199979
#  212596
#  223677
#
# Disc length: 3152 seconds
#
# Revision: 0
# Processed by: cddbd v1.4PL0 Copyright (c) Steve Scherf et al.
# Submitted via: AltoMP3_Maker 3.0
#
DISCID=170c4e14
DTITLE=Hank Williams - Long Gone Daddy - Disc II
DYEAR=1900
DGENRE=
TTITLE0=Honky Tonk Blues
TTITLE1=A Mansion On The Hill
TTITLE2=I Can't Help It
TTITLE3=I Saw The Light
TTITLE4=Moanin' The Blues
TTITLE5=Mind Your Own Business
TTITLE6=Kaw-Liga
TTITLE7=Long Gone Lonesome Blues
TTITLE8=You Win Again
TTITLE9=I Don't Care
TTITLE10=Nobody's Lonesome For Me
TTITLE11=(I Heard That) Lonesome Whistle
TTITLE12=Why Don't You Love Me
TTITLE13=Your Cheatin' Heart
TTITLE14=My Son Calls Another Man Daddy
TTITLE15=Take These Chains From My Heart
TTITLE16=Jambalaya (On The Bayou)
TTITLE17=I'm So Lonesome I Could Cry
TTITLE18=I'll Never Get Out Of This World Alive
TTITLE19=I'm A Long Gone Daddy
EXTD=
EXTT0=
EXTT1=
EXTT2=
EXTT3=
EXTT4=
EXTT5=
EXTT6=
EXTT7=
EXTT8=
EXTT9=
EXTT10=
EXTT11=
EXTT12=
EXTT13=
EXTT14=
EXTT15=
EXTT16=
EXTT17=
EXTT18=
EXTT19=
PLAYORDER=
